<svg width="15" height="10" viewBox="0 0 15 10" fill="none" xmlns="http://www.w3.org/2000/svg">
<path d="M14.0627 1.28125V5.03125C14.0627 5.15557 14.0133 5.2748 13.9254 5.36271C13.8375 5.45061 13.7183 5.5 13.5939 5.5C13.4696 5.5 13.3504 5.45061 13.2625 5.36271C13.1746 5.2748 13.1252 5.15557 13.1252 5.03125V2.41211L8.30293 7.24023C8.21406 7.32826 8.09403 7.37764 7.96895 7.37764C7.84386 7.37764 7.72383 7.32826 7.63496 7.24023L5.6252 5.22461L1.74043 9.11523C1.65045 9.20124 1.53092 9.24947 1.40645 9.25C1.2822 9.24831 1.16308 9.20024 1.07246 9.11523C0.984438 9.02636 0.935059 8.90633 0.935059 8.78125C0.935059 8.65617 0.984438 8.53614 1.07246 8.44727L5.29121 4.22852C5.38008 4.14049 5.50011 4.09111 5.6252 4.09111C5.75028 4.09111 5.87031 4.14049 5.95918 4.22852L7.96895 6.24414L12.4631 1.75H9.84395C9.71962 1.75 9.6004 1.70061 9.51249 1.61271C9.42458 1.5248 9.3752 1.40557 9.3752 1.28125C9.3752 1.15693 9.42458 1.0377 9.51249 0.949794C9.6004 0.861886 9.71962 0.8125 9.84395 0.8125H13.5939C13.7183 0.8125 13.8375 0.861886 13.9254 0.949794C14.0133 1.0377 14.0627 1.15693 14.0627 1.28125Z" fill="#44BA95"/>
</svg>
